# xmcd CD database file
#
# Track frame offsets:
#	150
#	16526
#	29255
#	46001
#	62339
#	78072
#	92539
#	107165
#	120111
#	134113
#
# Disc length: 1973 seconds
#
# Revision: 0
# Processed by: cddbd v1.5.2PL0 Copyright (c) Steve Scherf et al.
# Submitted via: CDex 1.51
#
DISCID=6507b30a
DTITLE=Sammy Kershaw - Honky Tonk Boots
DYEAR=2006
DGENRE=Country
TTITLE0=Tennessee Gril
TTITLE1=Honky Tonk Boots
TTITLE2=One Step At A Time
TTITLE3=Evangeline
TTITLE4=Leavin' Made Easy
TTITLE5=Baby's Got Her Blue Jeans On
TTITLE6=High Society
TTITLE7=The Battle
TTITLE8=Mama's Got A Tattoo
TTITLE9=Cantaloupes On Mars
EXTD=YEAR: 2006
EXTT0=
EXTT1=
EXTT2=
EXTT3=
EXTT4=
EXTT5=
EXTT6=
EXTT7=
EXTT8=
EXTT9=
PLAYORDER=
